<svg xmlns="http://www.w3.org/2000/svg" xmlns:xlink="http://www.w3.org/1999/xlink" width="300" height="300" viewBox="273764.298184724 3878632.843159229 5583.409868311021 5527.735112290829" preserveAspectRatio="xMinYMin meet"><g transform="matrix(1,0,0,-1,0,7762793.421430749)"><path fill-rule="evenodd" fill="#66cc99" stroke="#555555" stroke-width="37.222732455406806" opacity="0.6" d="M 275657.6514824234,3883463.072450707 L 275707.36999494757,3883511.5358232097 L 275781.49588891177,3883612.272540344 L 275835.56749352335,3883665.173474844 L 275889.64872142265,3883678.847211566 L 275919.33400513534,3883677.275316006 L 275956.3727469275,3883672.835232995 L 276014.0006994366,3883698.6382825347 L 276055.0341810158,3883736.026841713 L 276087.6470178601,3883772.974705128 L 276107.0100352187,3883778.277573931 L 276192.3082623827,3883783.427251317 L 276239.9757354518,3883778.3474341324 L 276300.59603012935,3883759.4504100773 L 276348.4822145385,3883769.770110398 L 276416.6360212963,3883767.436778109 L 276499.73650019977,3883772.5671082893 L 276586.4223425124,3883785.7943683923 L 276688.4351542841,3883805.022180403 L 276762.7486361682,3883809.708581463 L 276823.2282571206,3883805.474681508 L 276878.595192353,3883837.856654766 L 276924.8089795397,3883869.7914920193 L 276955.88541629864,3883875.930580618 L 276994.05539231305,3883906.328212757 L 277027.8477334144,3883934.854290096 L 277098.6073036764,3883928.144522495 L 277181.7285783077,3883931.075298393 L 277245.7829357422,3883936.0380101693 L 277328.0978746789,3883946.6604495016 L 277402.4602859777,3883946.2146984683 L 277471.2514382999,3883953.7853134344 L 277478.18726049364,3883879.7915821224 L 277485.31730680924,3883823.763338435 L 277506.305738345,3883774.089330308 L 277523.34252304025,3883716.315206566 L 277534.3856303596,3883672.419448151 L 277554.9165134635,3883632.273234284 L 277605.21317800344,3883582.1238717297 L 277689.2167074465,3883531.171237357 L 277732.6255656056,3883511.7563299774 L 277762.6838298605,3883509.4545130315 L 277787.9806504769,3883507.1108080326 L 277872.6729865094,3883537.1844314174 L 277922.5059748547,3883535.4231789904 L 277982.0584791012,3883513.21744915 L 278025.06587612804,3883497.4650980392 L 278106.218391215,3883514.6763174124 L 278193.2451399737,3883530.4727730537 L 278220.05963312933,3883522.6433197027 L 278282.8697687662,3883504.4989406 L 278326.31007606385,3883481.7848924627 L 278341.1010754991,3883467.250761206 L 278364.351244604,3883449.1249878346 L 278397.92701140256,3883423.757930986 L 278436.725276395,3883388.5384594053 L 278474.5135701266,3883382.2719933195 L 278532.7212582298,3883385.716926631 L 278614.3732495198,3883389.00150005 L 278632.0311123452,3883381.0915171998 L 278641.32814629294,3883366.509073542 L 278648.0121794103,3883357.036124611 L 278652.2166586901,3883338.7428228725 L 278646.2325172151,3883313.394377049 L 278602.9922413791,3882894.716678721 L 278578.5360443926,3882847.5759257725 L 278561.37349227036,3882803.798803383 L 278614.92155451176,3882796.5712928073 L 278701.09151283355,3882787.064612054 L 278718.50606323464,3882766.321336037 L 278745.10175236466,3882743.0926167513 L 278763.44203979714,3882702.1941869273 L 278788.9600186185,3882676.7563615716 L 278794.25982354017,3882658.8393293456 L 278812.4771611501,3882630.7710255277 L 278809.8386588701,3882600.319549052 L 278816.26536303246,3882579.4795952686 L 278782.44192764105,3882554.2527540214 L 278787.1286756055,3882523.865743512 L 278808.6740026521,3882492.5272879684 L 278819.89725136117,3882468.063498806 L 278793.25867583574,3882304.689613654 L 278723.9719850706,3882310.6786726974 L 278726.7642163365,3882286.8738881196 L 278726.5236420741,3882235.546991513 L 278721.1519061178,3882184.541537629 L 278705.56351635174,3882129.4134898055 L 278700.5053608315,3882083.909874286 L 278702.52215737716,3882026.3705545384 L 278937.3797188931,3881828.6381140198 L 279050.00006369874,3881730.030156179 L 279140.9150949494,3881650.426929605 L 279125.0597370522,3881623.158576858 L 279135.1526360122,3881601.984352831 L 279133.84576750675,3881585.4756282065 L 279129.2531021475,3881567.8381585977 L 279116.3981446673,3881533.2641199585 L 279099.3877829709,3881511.8512653937 L 279077.65118975827,3881486.7307463856 L 279041.9826384506,3881462.953971032 L 279016.0414176624,3881456.1266716747 L 279004.1059794164,3881440.257564708 L 278984.08820241666,3881426.8835243015 L 278948.3001226672,3881415.5702552116 L 278916.5057552332,3881407.95819708 L 278872.2409355019,3881402.069358997 L 278833.19516610284,3881386.694736519 L 278795.3149691728,3881364.3648704956 L 278765.82713234914,3881345.4083430595 L 278761.9453033361,3881291.8497783514 L 278750.26301530143,3881249.587288454 L 278742.4226622652,3881188.6617549337 L 278716.86468085746,3881141.877799832 L 278683.4323868544,3881114.0879755486 L 278662.09373806196,3881085.6714352756 L 278631.44329202356,3881035.176553242 L 278598.0707900458,3881001.154937428 L 278567.32541664946,3880960.557549167 L 278558.2754634074,3880950.1691803015 L 278552.9283735575,3880943.813456496 L 278546.5085359829,3880936.3332194076 L 278541.8599686938,3880931.4603373464 L 278536.16362021025,3880924.3631913434 L 278531.65651843743,3880913.2583826985 L 278530.5424096414,3880897.82884604 L 278529.97703483165,3880890.4806603813 L 278529.40333961265,3880883.4990600417 L 278529.1872260856,3880876.892296579 L 278528.97110990976,3880870.2855331176 L 278525.5034715703,3880861.7715710844 L 278520.5389325861,3880854.690930849 L 278514.40178771294,3880850.8847826174 L 278502.5017231265,3880842.91416034 L 278494.2107650429,3880837.2255735127 L 278480.8637275733,3880828.488766417 L 278471.05922272924,3880824.966666727 L 278460.9221027199,3880819.9699794985 L 278445.77883373364,3880809.7255680375 L 278436.43177139666,3880802.179297288 L 278427.5088672761,3880792.0751914615 L 278421.7625910318,3880787.17754413 L 278415.36772793066,3880778.5975484382 L 278407.8668301656,3880770.359375443 L 278402.48645602516,3880765.469982318 L 278396.4325311444,3880757.997988845 L 278388.2996899916,3880745.3442994994 L 278381.56388866855,3880735.656296293 L 278376.59103192127,3880728.94223343 L 278370.21281493595,3880719.6290671 L 278365.289891248,3880710.715497624 L 278356.0177311427,3880699.869964306 L 278348.7995181341,3880695.305882815 L 278331.0533138416,3880686.836602604 L 278319.7102930611,3880686.5807407107 L 278312.001342662,3880687.5071662576 L 278305.0408452358,3880687.7169322264 L 278292.5501771489,3880689.6358116805 L 278277.5481141605,3880689.2974103624 L 278268.03460918623,3880689.082816859 L 278254.1718677977,3880686.9362568655 L 278243.5606485739,3880686.6968980907 L 278230.4213909799,3880684.9334291834 L 278217.60642549,3880685.01113578 L 278200.8081230408,3880683.1651274464 L 278189.8060298909,3880684.017270422 L 278176.6334800604,3880683.720137494 L 278166.7374215716,3880684.230457771 L 278153.22393087205,3880682.825317326 L 278138.54614939704,3880684.328091512 L 278123.5191066399,3880685.0894435016 L 278114.37149847194,3880684.883101556 L 278099.4609652973,3880680.5122696776 L 278085.30720814876,3880675.058192905 L 278071.13680488535,3880670.3372814762 L 278064.96636247874,3880667.997461278 L 278058.7959227237,3880665.6576410807 L 278052.68373908114,3880660.75172895 L 278045.49048465793,3880655.0878862073 L 278038.31387899746,3880648.6908728257 L 278031.17888333753,3880640.4609381505 L 278021.51584665675,3880630.7068853937 L 278016.1188263977,3880626.550649667 L 278010.0232862267,3880620.91156425 L 278004.31029692094,3880614.5475650514 L 277999.6617322809,3880609.6746671014 L 277991.02983067953,3880602.8780515734 L 277978.4395586449,3880593.0579651585 L 277970.8970455868,3880586.6526949233 L 277964.06969856046,3880580.9971037405 L 277958.0490659168,3880572.0587557517 L 277952.7019813608,3880565.7030081125 L 277947.0139612324,3880558.239250309 L 277941.76675073354,3880547.484486792 L 277940.43629537406,3880541.5861154543 L 277936.23686342186,3880533.055621174 L 277924.08740366495,3880519.9445237466 L 277912.0128487902,3880503.5341611 L 277906.7739639984,3880492.4128096146 L 277901.86769436905,3880482.766048314 L 277895.6060028536,3880468.3206716347 L 277892.8618694928,3880460.1897768546 L 277886.6085036853,3880445.3778122086 L 277884.57121064723,3880438.36317915 L 277881.1535318461,3880427.649681372 L 277878.57585965726,3880412.1870881626 L 277876.64676903386,3880400.4068512577 L 277875.44116484956,3880389.009708087 L 277873.0712619454,3880380.5204795455 L 277871.05062032316,3880372.7726758514 L 277866.5352299185,3880362.0344128027 L 277862.0115191023,3880351.6627350734 L 277857.49612869625,3880340.9244720247 L 277851.6170012894,3880325.7541762674 L 277849.57139049185,3880319.106123232 L 277847.8833640322,3880312.83291237 L 277846.577885794,3880305.8347850787 L 277844.9148285113,3880298.461818261 L 277842.52828478685,3880290.7057577088 L 277840.46603052,3880284.7908753115 L 277837.0150647792,3880275.5437135114 L 277827.06105206197,3880262.4821227933 L 277821.3563990557,3880255.751527682 L 277814.9199365492,3880249.00442151 L 277805.31518511265,3880236.684255635 L 277795.57725679455,3880230.2294442677 L 277787.26965524186,3880225.2739883526 L 277779.2696917335,3880222.8928812295 L 277771.236435991,3880221.978115382 L 277762.87057038024,3880219.5887540523 L 277756.34254893166,3880216.87407844 L 277749.05774880724,3880215.2426503696 L 277738.8706798535,3880212.4454300376 L 277727.21166884276,3880209.981778191 L 277715.93520869757,3880206.7932099155 L 277707.22008445294,3880203.662423742 L 277700.04348674,3880197.2653891766 L 277695.01237917633,3880193.1173917674 L 277690.39711736306,3880186.778139302 L 277686.50534199114,3880180.821980572 L 277681.1915655604,3880172.9998784163 L 277675.14597962785,3880165.1612651977 L 277668.3852303106,3880156.572975576 L 277658.6805968747,3880148.651817638 L 277650.8138102498,3880140.4053454166 L 277641.4417866819,3880133.95878031 L 277632.09473493777,3880126.412461898 L 277624.23627401906,3880117.7994043566 L 277615.5794111858,3880112.102515655 L 277609.1013333866,3880107.1883281325 L 277599.70433799364,3880101.841513686 L 277583.7210544466,3880096.3461182113 L 277571.7460770353,3880091.674692302 L 277559.746125152,3880088.10302235 L 277552.4946172617,3880085.0052477075 L 277540.12876062887,3880081.4253209014 L 277521.2265568392,3880075.497298501 L 277508.5197646312,3880070.8093615305 L 277496.91901238286,3880065.779601862 L 277489.30992015253,3880062.306985046 L 277475.9712057402,3880053.2035158374 L 277465.1938272297,3880044.157826078 L 277458.84893160907,3880033.378268159 L 277449.30245482473,3880018.4919759254 L 277440.0469673178,3880006.913208415 L 277434.05965338857,3879996.508487373 L 277423.08285513276,3879980.1228343863 L 277413.45313981763,3879968.9023926896 L 277403.4158991615,3879959.5066233804 L 277390.16875428404,3879946.370705071 L 277379.3664065975,3879938.4247633256 L 277371.8322351358,3879931.6528733466 L 277367.65780413704,3879922.0225939797 L 277362.8431305237,3879908.3433650443 L 277358.32776924723,3879897.605075515 L 277355.3842452716,3879882.1341936723 L 277352.99772273115,3879874.3781145834 L 277347.8004982504,3879861.4237994305 L 277345.0147707817,3879855.1258074096 L 277341.2395500104,3879844.037440977 L 277338.944597004,3879832.2489233837 L 277335.1610505261,3879821.5271396204 L 277329.1654241303,3879811.488995954 L 277325.64788980875,3879805.1744928714 L 277320.25920584926,3879800.651640048 L 277313.3486282369,3879798.6618649773 L 277304.64182175475,3879795.164472298 L 277294.86227284744,3879790.542558393 L 277279.9101031922,3879788.004584257 L 277272.9412509296,3879788.580906415 L 277262.7208765025,3879787.250003524 L 277253.5815649127,3879786.6770391874 L 277245.0908189954,3879789.786439101 L 277238.0803434936,3879792.1956878533 L 277226.18822593393,3879799.9964037454 L 277215.13652014977,3879786.91000009 L 277203.9932448326,3879777.856034939 L 277195.0204261938,3879769.951356284 L 277185.2824978746,3879763.496510491 L 277169.3574757386,3879755.4349807124 L 277155.9604919715,3879748.897579602 L 277145.86498196074,3879742.067891634 L 277131.7611605164,3879734.414220857 L 277119.1126376646,3879727.1601575245 L 277105.77392590034,3879718.05665389 L 277091.2459250552,3879712.960826138 L 277070.8717553731,3879707.36632721 L 277050.1150295262,3879702.4967420665 L 277036.5681909815,3879702.5578793413 L 277012.0774783272,3879700.905012046 L 276991.9609818568,3879700.084381765 L 276971.04607287794,3879702.1799256187 L 276940.3099758643,3879701.486474218 L 276919.0208284857,3879703.940349182 L 276894.50512546813,3879703.3872378436 L 276872.1931793107,3879702.517074375 L 276848.101653047,3879699.4061147147 L 276833.1577773228,3879696.501539371 L 276810.9207519328,3879692.332097441 L 276792.32613587385,3879688.978381463 L 276770.85421751486,3879683.3591040266 L 276753.4488958336,3879675.9977042214 L 276731.99362624146,3879669.64525085 L 276716.7337894136,3879664.5328987935 L 276704.8503603508,3879655.828984066 L 276692.2600962613,3879646.0087970216 L 276683.96080188017,3879640.686713421 L 276674.71364802343,3879628.7413049806 L 276661.1422189853,3879613.7641423163 L 276647.2964653212,3879594.7462710533 L 276635.21364299837,3879578.7023666142 L 276620.6027770069,3879561.134325561 L 276611.6549275429,3879552.1298591737 L 276601.26010519615,3879542.359197374 L 276592.32058408926,3879532.988145667 L 276584.40385116683,3879526.941137693 L 276570.7408446495,3879515.9964135345 L 276559.91351189767,3879509.150182725 L 276539.00730730826,3879494.741064181 L 276523.87235078623,3879484.1298979204 L 276514.1094321064,3879478.7747815987 L 276499.98893806443,3879471.854247036 L 276484.4630970233,3879462.3345825216 L 276474.6585498095,3879458.812395443 L 276460.85400362796,3879454.0996349426 L 276445.2532285792,3879447.8792462433 L 276431.8229155039,3879442.8081519827 L 276415.79795045825,3879439.1456142487 L 276398.72522010934,3879433.2587887403 L 276385.66913749126,3879427.829360722 L 276366.29272591125,3879426.6586244074 L 276347.44041281065,3879418.530994767 L 276330.6753019657,3879415.2185286405 L 276314.6086977952,3879413.3889201493 L 276290.1678625859,3879409.5364879775 L 276268.9868858395,3879407.224708783 L 276252.171810162,3879406.1117598647 L 276233.8431506499,3879407.1653086804 L 276201.9759226887,3879407.9133882616 L 276180.412373889,3879406.326522849 L 276166.1253392296,3879406.737713195 L 276158.43296080286,3879406.9309257315 L 276145.6178787962,3879407.0085528865 L 276136.8194498179,3879407.5435828236 L 276118.47412565217,3879409.3303049216 L 276101.6673650879,3879407.8507680367 L 276089.70066042163,3879402.8126879595 L 276073.75060555444,3879395.850853229 L 276056.4035320431,3879385.9232979347 L 276040.83603598626,3879378.236544125 L 276029.6594287126,3879370.6488619912 L 276015.63882726396,3879359.329258585 L 275994.7242651892,3879345.2866750443 L 275986.03407569684,3879341.0560693587 L 275975.93021084974,3879334.5929137464 L 275960.562550293,3879318.1080593276 L 275952.67911225476,3879310.5946782995 L 275945.5607971363,3879301.631459116 L 275920.86272300774,3879276.8670150163 L 275907.5989187709,3879264.4641508292 L 275896.17297988385,3879251.735980303 L 275889.0546647642,3879242.7727584722 L 275882.36054758524,3879231.251677727 L 275878.9512739325,3879220.171494002 L 275870.5608469568,3879202.7437347528 L 275856.24095700344,3879188.4831575165 L 275846.46969672816,3879183.4946000343 L 275832.04155669763,3879173.999655774 L 275813.4473510996,3879154.5077753277 L 275795.9925068214,3879133.2077203197 L 275786.7703486229,3879120.162489719 L 275778.25502545346,3879108.2335340814 L 275770.52148191445,3879094.1215643566 L 275756.6591059662,3879075.836771045 L 275746.7467694504,3879060.942084251 L 275736.92603689304,3879042.014932473 L 275729.21748106705,3879026.8031961997 L 275721.8748326377,3879011.5997167793 L 275715.57994686975,3878998.6205304316 L 275705.3849838546,3878980.051707115 L 275692.63699740556,3878961.058497844 L 275682.658052587,3878949.0965041933 L 275674.5586148894,3878934.976267019 L 275662.9749748254,3878913.0751219313 L 275656.78835502197,3878895.330292015 L 275651.0342641614,3878874.6610178687 L 275647.04309669265,3878856.9657264384 L 275644.1486186511,3878839.6361173145 L 275629.9381439492,3878869.9394179257 L 275614.2696536816,3878899.496646231 L 275594.8222643936,3878941.118679014 L 275579.5200443161,3878970.6791459774 L 275569.3244113248,3879002.484296579 L 275566.02442846366,3879040.94922082 L 275561.73837102944,3879067.673939869 L 275545.2598747594,3879105.2894645925 L 275537.4238778909,3879120.251381998 L 275505.2769654995,3879149.296759408 L 275468.8299553114,3879168.4057685635 L 275408.46292471414,3879199.0354268164 L 275349.90255130426,3879232.2472961457 L 275283.5660313087,3879274.1892754612 L 275262.6324874724,3879279.870497851 L 275224.5935963212,3879274.036012545 L 275181.41992348945,3879268.8894811324 L 275127.86044782575,3879277.2159717632 L 275081.74248041434,3879311.6374068717 L 275007.9818900771,3879363.7790946416 L 274942.2932710764,3879376.398016746 L 274932.67522605165,3879386.21171853 L 274924.8779500732,3879397.1413060026 L 274895.4779462797,3879407.147240518 L 274873.0229271919,3879418.680838952 L 274859.3054937507,3879435.7906271718 L 274828.0635464955,3879485.0076932856 L 274809.4472767128,3879516.3721295903 L 274789.85194194654,3879573.3907060344 L 274777.31783930364,3879657.967353407 L 274739.6873712066,3879723.9922658163 L 274693.474248699,3879768.31149923 L 274638.07269187196,3879777.721703474 L 274599.5793214672,3879781.0485436255 L 274554.93685784534,3879776.255738234 L 274503.4585440664,3879758.5712802843 L 274480.79924327764,3879829.4941789852 L 274470.1810065204,3879867.161575192 L 274460.42917024594,3879929.032966204 L 274446.2328285895,3879995.9977566376 L 274426.327620761,3880047.1479464727 L 274404.7636853353,3880118.4471676494 L 274388.51071668067,3880208.8570106896 L 274393.2971904051,3880320.715738692 L 274411.4278336797,3880416.19452042 L 274437.95791814756,3880476.1859753123 L 274467.83020719327,3880531.4409160176 L 274477.8639682119,3880554.625848547 L 274490.06014620047,3880581.49594969 L 274521.29546519724,3880647.394607417 L 274532.3294947427,3880680.853467417 L 274543.3776070181,3880712.846002033 L 274550.3826909368,3880746.2693612617 L 274570.57346468256,3880779.808880518 L 274590.74312492285,3880815.54787991 L 274598.3329493898,3880864.374061506 L 274604.52458209574,3880906.2223077677 L 274605.3421140695,3880973.6860103537 L 274594.85079932224,3880998.1565601807 L 274575.45641491667,3881034.2802554215 L 274538.8403457446,3881070.9854790377 L 274512.976286041,3881094.220794803 L 274455.03213144944,3881139.536854182 L 274433.59144508466,3881159.8782506613 L 274440.3675800108,3881179.001747711 L 274446.0519483726,3881197.3824005197 L 274450.5037943594,3881229.683441763 L 274456.43831790343,3881260.1644845614 L 274467.4689525518,3881293.989913994 L 274484.6382123757,3881337.0346999033 L 274467.0224362104,3881378.673283472 L 274449.0403951502,3881420.308644273 L 274431.0404103927,3881425.6492912327 L 274393.2055652613,3881436.6810380947 L 274324.9386517645,3881450.744277014 L 274267.7231395164,3881458.3058353895 L 274199.5195082768,3881465.770623314 L 274149.0660561664,3881493.9220226626 L 274130.49217757815,3881520.8877449716 L 274098.9299580718,3881565.3364770226 L 274070.29438603786,3881610.1776030255 L 274047.06491733226,3881664.231661155 L 274045.9207549585,3881707.11523183 L 274055.36678569205,3881753.391575687 L 274060.87925098545,3881827.8624277287 L 274074.93205364165,3881890.3102733055 L 274089.71038709255,3881953.497724466 L 274077.58520799864,3881995.551383179 L 274068.84792953846,3882028.1029529897 L 274057.2121425867,3882057.329493968 L 274045.66429194075,3882077.391499959 L 274035.91262514715,3882101.1354491487 L 274012.0386635851,3882146.018585013 L 273986.7136907478,3882189.4225017712 L 273971.0911428096,3882214.2146108365 L 273975.79639322544,3882220.121837504 L 273978.62104813906,3882231.145083882 L 273980.81213901157,3882270.0253057103 L 274005.51509893313,3882329.634016422 L 274029.54180437705,3882383.3709641644 L 274047.0354331017,3882430.8179781316 L 274058.15125794976,3882493.9731777706 L 274086.7455721869,3882529.786300843 L 274109.6940562344,3882543.1863590847 L 274176.7181170128,3882544.142967966 L 274214.4334628304,3882545.574804165 L 274294.4252250367,3882569.375510628 L 274347.5028133457,3882573.1422388623 L 274401.6229422105,3882582.783934297 L 274511.49409573455,3882622.978534716 L 274537.0802717339,3882628.7029294977 L 274621.45662018505,3882653.64199894 L 274707.28395607544,3882680.0602663076 L 274746.5809399085,3882707.5354032367 L 274792.34773673967,3882747.8988799183 L 274851.2088445299,3882797.9094833415 L 274913.41911087383,3882842.450370163 L 274965.447649535,3882879.2027913197 L 275030.9191910899,3882927.438448859 L 275068.9767700621,3882969.567041584 L 275104.06905482087,3883015.3356391382 L 275126.476227575,3883085.188912258 L 275162.01564303914,3883122.5293655857 L 275177.7687356225,3883122.3013831605 L 275216.2621457492,3883118.9740160313 L 275271.1216762907,3883127.8888248317 L 275374.12485524826,3883158.490698952 L 275459.55412225594,3883188.2046804028 L 275480.15381955344,3883217.3481761613 L 275501.1381676801,3883282.7894840664 L 275533.3749706933,3883358.9614919727 L 275574.73605453584,3883400.3857786264 L 275600.4143535264,3883434.7064710935 L 275657.6514824234,3883463.072450707 z" /></g></svg>