<svg xmlns="http://www.w3.org/2000/svg" xmlns:xlink="http://www.w3.org/1999/xlink" width="300" height="300" viewBox="316802.36641445535 4299262.511386182 12120.235165827733 8248.83709442243" preserveAspectRatio="xMinYMin meet"><g transform="matrix(1,0,0,-1,0,8606773.859866787)"><path fill-rule="evenodd" fill="#66cc99" stroke="#555555" stroke-width="80.80156777218488" opacity="0.6" d="M 324795.2320274098,4306358.485844003 L 324872.3390157429,4306282.890924805 L 324943.39892938465,4306192.177011734 L 325000.85201342474,4306134.723925531 L 325044.6970151634,4306089.366955098 L 325084.0060536269,4306050.057047134 L 325145.99503766646,4305989.58091913 L 325194.3760660483,4305950.270920964 L 325238.22011525184,4305907.9379545925 L 325301.72095617163,4305868.62788302 L 325347.0778946909,4305830.831158161 L 325410.57901043445,4305779.425926118 L 325582.93602186523,4305666.032990476 L 325617.7100181156,4305629.747034167 L 325664.57888749894,4305582.877996774 L 325756.80507129885,4305499.722893397 L 325815.7700037812,4305401.448944839 L 325855.0791220019,4305321.316852316 L 325917.067887477,4305244.210023271 L 325959.40106287366,4305201.8771187775 L 325976.03307659016,4305179.954143006 L 326004.75795701717,4305130.061977643 L 326012.31705101614,4305086.215990451 L 326021.3901232537,4305045.39492012 L 326030.46000387403,4305031.786864012 L 326053.13903280045,4305013.645124682 L 326077.3300139266,4304989.454035565 L 326096.98500448477,4304972.823137539 L 326122.6871212154,4304951.655958726 L 326142.34212461504,4304935.025073391 L 326158.9729686035,4304912.346970999 L 326175.6039415116,4304882.108968281 L 326181.6520050073,4304836.75099795 L 326190.7229672179,4304783.834906229 L 326220.9609454471,4304706.727040226 L 326240.61611621024,4304673.465039709 L 326298.0680806901,4304658.345831858 L 326337.3780845088,4304644.739044778 L 326382.7350359276,4304622.060064996 L 326423.55702202296,4304608.452876303 L 326482.52112017036,4304582.75098933 L 326521.830875573,4304529.834043858 L 326547.53298547724,4304490.524052619 L 326609.52096214046,4304430.047971762 L 326653.3670413018,4304372.596088469 L 326707.79503561277,4304340.846046629 L 326783.3908845826,4304328.748905253 L 326839.3310721135,4304330.262139852 L 326920.97394324036,4304340.845991771 L 326973.8910112363,4304312.118859877 L 327022.2719064298,4304293.976005662 L 327134.15303497855,4304257.690981443 L 327215.7958745576,4304236.524079041 L 327270.22503245785,4304227.451897818 L 327326.1660439469,4304244.082991527 L 327444.09500519733,4304298.511950255 L 327582.654945242,4304441.42387456 L 327625.96906194685,4304484.923994635 L 327689.938924939,4304548.92490151 L 327755.9719728251,4304613.423903192 L 327846.75499996037,4304700.424096154 L 327888.0380130147,4304739.924992988 L 327912.8510857661,4304750.424018585 L 327954.95103954023,4304774.557945261 L 328067.4478691304,4304855.924863387 L 328157.8250253027,4304919.923963726 L 328233.48301850155,4304968.424008495 L 328290.89011676575,4305007.423839943 L 328330.0730325796,4305028.76397834 L 328422.29897470714,4305036.322974729 L 328466.7368840497,4305022.658761334 L 328473.4449929282,4305010.714035196 L 328473.7039815487,4304995.502066751 L 328471.2830794871,4304939.033044724 L 328426.3960239217,4304847.762957919 L 328385.997069298,4304793.8980888575 L 328345.5990531045,4304687.664916418 L 328323.15502894646,4304656.244029708 L 328300.7109722452,4304642.77801527 L 328254.3280158176,4304639.7850104105 L 328225.89897017856,4304603.876047523 L 328204.9518745857,4304544.025966062 L 328182.507953209,4304539.53700502 L 328115.1769589541,4304517.094947805 L 328086.7489024977,4304517.094977933 L 328058.32000994333,4304539.536794427 L 328017.9221220355,4304532.055901606 L 327932.63589531026,4304472.207019342 L 327884.16003577685,4304419.922043743 L 327831.0650134634,4304349.422052372 L 327676.7789535546,4304226.82295903 L 327509.1990563539,4304132.560156031 L 327465.8080764944,4304075.702871648 L 327435.8850677033,4304017.349968808 L 327414.93690016423,4303960.491055253 L 327414.1919648743,4303914.310140949 L 327413.44103015587,4303867.72596822 L 327392.4939355323,4303830.320071612 L 327361.0730096357,4303764.485153746 L 327355.08693267265,4303707.6279540565 L 327353.5910308352,4303653.762985545 L 327338.62909276027,4303593.913993975 L 327284.7639449648,4303498.153935017 L 327209.9519395272,4303409.875854532 L 327162.07311724947,4303320.102078209 L 327109.7039228247,4303222.846046332 L 327054.3428898391,4303132.323886561 L 327046.862090801,4303091.924878759 L 327050.82302765816,4303011.418083336 L 327126.16192969104,4302916.864941887 L 327157.58403647924,4302828.587082774 L 327175.6039262471,4302725.914010063 L 327215.4480596422,4302621.912983704 L 327221.9219706964,4302554.776050311 L 327244.36601263226,4302494.924985198 L 327266.80905947514,4302442.557042933 L 327283.26789799065,4302400.662046222 L 327290.7488968789,4302360.264149986 L 327295.23789303936,4302325.849014157 L 327292.2459278647,4302291.437076103 L 327279.54006961884,4302243.460968721 L 327281.77202527504,4302183.708015572 L 327248.8549901858,4302143.308946352 L 327175.53896051133,4302116.377008601 L 327145.7710344002,4302097.665928041 L 327123.1699431201,4302083.459173211 L 327060.32798136526,4302049.045983063 L 327045.3659978374,4302013.135906211 L 327033.276982713,4301975.057010838 L 327015.4411243046,4301918.873000429 L 326966.0650707277,4301803.6621394325 L 326910.7040270397,4301698.926005627 L 326865.81711774523,4301627.106026023 L 326844.8699641047,4301586.707949938 L 326825.41897894145,4301514.888004976 L 326807.4639235253,4301458.031097901 L 326795.4939712123,4301410.1509936545 L 326768.562061191,4301377.234004713 L 326734.14793446974,4301330.850055645 L 326707.216090255,4301287.460030412 L 326677.2909868154,4301251.549954811 L 326636.89196249703,4301217.136008967 L 326581.53199942823,4301154.293905426 L 326509.7120558376,4301088.4600512395 L 326440.8849202456,4301009.159113008 L 326407.9678749376,4300968.759995312 L 326372.05695902766,4300926.865862946 L 326330.16310406325,4300880.481987342 L 326292.75703616685,4300853.549936788 L 326266.3350366879,4300830.901994363 L 326229.9139963678,4300799.684845541 L 326155.10296019993,4300736.84305102 L 326113.2079397761,4300706.917994606 L 326078.79498787725,4300654.55003049 L 326020.4410026445,4300494.45212391 L 325975.5539750975,4300397.197024558 L 325930.2050144869,4300352.386077618 L 325802.7588847026,4300410.518048086 L 325728.67404136655,4300464.227954784 L 325682.3718925889,4300495.715050164 L 325604.58496455743,4300503.121949908 L 325515.68407142395,4300508.677991121 L 325406.4111240186,4300499.417963375 L 325308.2509156264,4300506.826062414 L 325224.90705806203,4300538.311895487 L 325150.8229671742,4300538.312110837 L 325089.7040455345,4300512.382864504 L 325024.8810128211,4300499.418100735 L 324941.5369753438,4300484.601137206 L 324876.7140969685,4300488.305089003 L 324785.9619972799,4300466.080007263 L 324713.7310656188,4300466.079944226 L 324643.3509851884,4300479.045041366 L 324602.6061037632,4300482.749057601 L 324567.4159015879,4300486.453048531 L 324491.48003570206,4300523.495098561 L 324459.9949162246,4300558.68500421 L 324406.2839973599,4300625.359891935 L 324348.86990422464,4300680.92313766 L 324259.9689340618,4300699.443037 L 324226.63205235073,4300697.5909467805 L 324169.2170805817,4300695.738985916 L 324119.21112288255,4300692.0350431455 L 324104.39405635477,4300704.9999119565 L 324091.42911233706,4300716.112017907 L 324052.89900774846,4300740.557145924 L 324030.78502889303,4300757.406014801 L 323994.9820775888,4300779.519959779 L 323972.8681185297,4300792.155899312 L 323942.32889000326,4300818.482899307 L 323931.79897249036,4300804.792996967 L 323914.94987664395,4300801.63384713 L 323892.8360621316,4300813.217046108 L 323861.24394268607,4300813.217054505 L 323818.06900775875,4300810.058006391 L 323789.6360277281,4300810.058143752 L 323758.0450299074,4300825.854122277 L 323724.3480205176,4300822.695039554 L 323686.43791581626,4300813.217151374 L 323643.26294519217,4300803.739989863 L 323607.45887410955,4300799.528112763 L 323531.6390832497,4300791.103109972 L 323488.46397375653,4300775.3070427235 L 323462.1379282668,4300753.194043267 L 323438.971037733,4300725.813945965 L 323412.64507117553,4300708.96507921 L 323394.7429250862,4300698.435106981 L 323368.4160068753,4300688.956890789 L 323353.3380278949,4300680.461030623 L 323247.3160302389,4300771.0950423125 L 323212.62497971393,4300790.911117495 L 323172.93811076554,4300775.03604231 L 323122.6668999529,4300767.097853251 L 322966.5621316929,4300674.494062374 L 322880.03812092333,4300612.305099016 L 322797.2300150363,4300552.785032004 L 322598.79104068095,4300415.201884376 L 322434.7490126686,4300327.889056458 L 322281.2901176354,4300224.70100082 L 322183.3940385105,4300153.263979055 L 322040.5189638686,4300060.658954595 L 321942.62287964334,4300015.679989755 L 321831.49796533,4299981.283899288 L 321725.6639967211,4299968.055028323 L 321588.0800901919,4299949.533935543 L 321416.1010360373,4299949.533969986 L 321315.5590680877,4299952.180127947 L 321222.95509450114,4299962.76312873 L 321135.64199257694,4300020.971987623 L 321069.4961130137,4300092.407899024 L 321037.74599818443,4300034.200982085 L 320995.3921037905,4299986.0050874315 L 320961.01699449914,4299946.887059612 L 320825.8889923224,4299943.7461655475 L 320733.47395498084,4299941.595885345 L 320580.016038526,4299936.305160535 L 320474.18199964816,4299946.886872505 L 320378.9319113615,4299965.409903867 L 320217.53607962537,4300018.325839695 L 320119.63994356454,4300028.908148114 L 320029.6810198516,4300036.846951616 L 319926.4939823637,4299965.409895927 L 319773.03494512127,4299878.095871781 L 319746.5770391617,4299859.574864501 L 319651.3259688723,4299809.3050127765 L 319577.2429760132,4299753.742014152 L 319534.9099763619,4299721.992043465 L 319479.3469810742,4299711.408984916 L 319437.0140237709,4299737.867933467 L 319410.55487351725,4299780.200121234 L 319378.80499205156,4299804.0130072925 L 319317.95095400856,4299825.179843782 L 319246.51300286874,4299851.638046693 L 319196.24201926263,4299898.997997416 L 319235.8529994098,4299943.009923204 L 319243.86701725866,4299951.915059057 L 319296.7840189214,4300004.831903712 L 319349.70110475563,4300057.749062968 L 319378.80502693047,4300115.9571501585 L 319362.93010821147,4300237.666089589 L 319333.82604788034,4300340.853865348 L 319291.4929687331,4300422.874956073 L 319257.096977572,4300459.916026565 L 319214.7630004707,4300491.666950209 L 319168.0259002268,4300524.382022774 L 319082.4720845391,4300584.270870585 L 319085.11719341145,4300613.374909345 L 319058.65900561237,4300676.875010407 L 318997.8038740357,4300732.437956978 L 318926.3669054661,4300761.5421643825 L 318836.40711119346,4300787.999961711 L 318719.99097721255,4300811.812981373 L 318682.46695036115,4300814.491025807 L 318666.365979593,4300844.207975541 L 318665.6539911409,4300875.232849291 L 318663.90706921136,4300951.179013935 L 318611.03511535743,4301032.33012004 L 318521.55294929247,4301124.022062372 L 318439.53199723084,4301179.584076571 L 318352.2199168106,4301248.3760494385 L 318299.3021222254,4301301.292882388 L 318217.5780451619,4301347.096961607 L 318116.73993143084,4301393.897038445 L 318026.78302663355,4301460.042846227 L 317968.57294617756,4301499.730981602 L 317931.53095295525,4301544.709980412 L 317889.19809634145,4301592.334992412 L 317829.32801644714,4301682.773881551 L 317803.1379762806,4301748.250027242 L 317754.4979376198,4301942.809098234 L 317715.2120364463,4302053.182964174 L 317715.2119458077,4302071.8921549665 L 317739.53202540195,4302141.109963802 L 317739.5319422991,4302174.78397311 L 317735.7900124778,4302283.287889118 L 317735.7900402736,4302330.056986265 L 317689.02098099596,4302352.506106776 L 317627.28607567877,4302389.920955721 L 317569.29296701145,4302434.819080271 L 317550.58608972427,4302461.758000749 L 317541.2309354049,4302564.649900614 L 317544.9729492207,4302637.6098379735 L 317563.6809685184,4302744.242966769 L 317576.7759834867,4302794.752885702 L 317589.37798715424,4302837.999065267 L 317558.0680104671,4302930.383030357 L 317509.42896200053,4303044.498949773 L 317501.94490971754,4303085.655931477 L 317500.0750391127,4303134.297032084 L 317490.72112814325,4303207.256087496 L 317477.6260138146,4303270.863144666 L 317462.6599850445,4303345.691994833 L 317417.7619131255,4303420.521988403 L 317370.99098998803,4303499.0941224 L 317339.1889491051,4303549.60506567 L 317316.86708866886,4303571.927027463 L 317303.64495713566,4303590.761006733 L 317296.16206778167,4303651.748014221 L 317286.8079315365,4303717.2250708295 L 317269.970924292,4303795.796975669 L 317251.2640131897,4303823.858009712 L 317329.83604678814,4303900.558951749 L 317378.47495581023,4303964.165159841 L 317432.72693089704,4304020.288011086 L 317470.1430704536,4304072.668018232 L 317561.80999379273,4304169.950001415 L 317589.8711153642,4304181.173028774 L 317644.12288299965,4304177.4320967635 L 317696.5039974416,4304190.527037646 L 317737.66095846135,4304212.9759123605 L 317763.85204095417,4304269.098991469 L 317795.65501040965,4304381.342892546 L 317810.621092945,4304452.432897039 L 317827.4579261521,4304539.424148076 L 317823.1819650725,4304552.25011159 L 317812.4919461515,4304584.32214467 L 317769.4640047945,4304617.994986671 L 317718.95400980354,4304668.505985734 L 317694.6340336148,4304698.438006839 L 317651.60609945527,4304750.8189557 L 317640.381076615,4304780.751031978 L 317631.0279722515,4304872.418993556 L 317631.02811071044,4304915.445940565 L 317661.5430204681,4305005.10703369 L 317718.95409963455,4305097.657990272 L 317827.4579677805,4305174.359140077 L 317906.03008923563,4305236.093982418 L 317992.08300824475,4305275.3800987275 L 318059.4318840726,4305318.407901326 L 318100.5879440262,4305367.046996139 L 318139.8739563537,4305434.39495783 L 318167.9359947645,4305501.741991783 L 318178.94110795495,4305575.111957045 L 318179.159995995,4305632.6949742315 L 318220.3170187919,4305679.464033045 L 318258.19405292184,4305693.462015724 L 318306.37202564673,4305711.266971716 L 318353.1409077576,4305729.975018758 L 318396.1679897157,4305746.812059746 L 318426.10102967994,4305767.389972496 L 318465.38698547764,4305795.451051559 L 318495.31889360445,4305842.219961326 L 318534.6049699718,4305892.731143164 L 318607.563884977,4305952.595121247 L 318674.91208498797,4306008.717987139 L 318704.8441024368,4306038.649921005 L 318711.49398672796,4306072.851032065 L 318717.9391284052,4306105.996933141 L 318744.1300193901,4306152.76608061 L 318805.8649887397,4306193.923006338 L 318842.8300916819,4306198.188026974 L 318854.5049698388,4306199.534860611 L 318931.2060305873,4306205.1479790155 L 318991.07008568954,4306225.726004634 L 319050.9339401371,4306268.753860898 L 319062.1600014903,4306311.780916284 L 319069.6420791591,4306354.807983609 L 319084.6079955405,4306418.414034741 L 319108.9290162352,4306450.21701088 L 319151.95490149676,4306508.210958095 L 319194.9820611251,4306536.271981577 L 319221.17297774286,4306586.7828532765 L 319258.58896652586,4306637.292966408 L 319309.0989834438,4306672.837991919 L 319325.93596200476,4306710.25301678 L 319335.28990836546,4306745.797103566 L 319359.6101081368,4306786.953993962 L 319413.8619200619,4306844.947033189 L 319449.4060216512,4306891.715886711 L 319484.95003349194,4306929.132106647 L 319515.401905781,4306949.587094571 L 319718.7949493448,4306998.350024767 L 319868.8321172404,4306837.497081517 L 320091.2990909636,4306779.994992889 L 320158.48602654715,4306769.492840397 L 320201.0799859321,4306755.994046322 L 320255.8290579675,4306736.4939970095 L 320304.2041293805,4306707.493030779 L 320333.82797023107,4306660.993064178 L 320366.8280286672,4306629.4919279665 L 320412.51601255353,4306615.992155437 L 320464.3899979512,4306605.490977238 L 320568.4830561691,4306599.991896741 L 320688.07693749317,4306603.489992068 L 320764.95203573303,4306613.487868329 L 320835.4210843763,4306611.989976671 L 320877.9510347493,4306595.488057678 L 320913.8250671623,4306554.988008176 L 320976.511981045,4306479.986954536 L 321011.26108955796,4306390.485979925 L 321063.7909566508,4306272.48513896 L 321120.07099994144,4306185.483911637 L 321182.6010760524,4306104.484153767 L 321212.8190177458,4306084.982891295 L 321276.8819349053,4306071.482966009 L 321350.12991734524,4306057.482158121 L 321389.69292475365,4306043.982026779 L 321447.4110204717,4306021.480975591 L 321507.78598978213,4305979.980115839 L 321565.0981094575,4305938.97998939 L 321616.81701951555,4305921.978895332 L 321662.7849660751,4305920.979000926 L 321717.72199855495,4305910.478990364 L 321773.00397387065,4305915.47806425 L 321877.7849497794,4305940.477051912 L 321924.28494615946,4305963.976957823 L 322012.0669626207,4306050.477119414 L 322090.7870141802,4306143.476994092 L 322147.8190393526,4306224.978013158 L 322188.44400389306,4306260.977054351 L 322253.47493289574,4306289.975877469 L 322333.28802556975,4306293.97593583 L 322465.28708705376,4306303.474847455 L 322542.16210328444,4306313.475005065 L 322631.00598171295,4306311.474112123 L 322732.38095166156,4306321.473010677 L 322821.75602529384,4306343.4741287865 L 322855.7240550202,4306354.971993265 L 322903.3499552439,4306427.472037371 L 322962.7880279323,4306481.471858023 L 323088.38291341974,4306612.972001854 L 323179.1649544527,4306696.471868388 L 323275.85294645105,4306770.972136743 L 323438.1349635244,4306898.971127334 L 323546.72897049866,4306957.471127237 L 323599.6349882302,4306992.970977501 L 323662.2921192589,4307052.970983125 L 323770.64197080594,4307062.45088187 L 323812.4920552613,4307044.892871513 L 323863.8978791509,4307016.165986733 L 323924.3730080975,4307005.581881611 L 323953.09898314433,4306979.8810490165 L 323978.80189224274,4306946.619005703 L 324007.5278941819,4306911.8449653555 L 324102.77789175266,4306822.641977198 L 324146.62412811234,4306778.797021754 L 324202.5640359169,4306727.392124525 L 324252.4569744463,4306701.689861323 L 324288.7430685071,4306692.618134305 L 324352.2429505698,4306677.498991134 L 324432.3740828115,4306638.188967507 L 324476.21995586145,4306607.951000593 L 324523.08904699923,4306592.832072913 L 324557.8629751033,4306567.129862339 L 324609.26703531394,4306515.724962897 L 324672.7679071948,4306465.831971034 L 324739.2920706524,4306409.891050085 L 324795.2320274098,4306358.485844003 z" /></g></svg>